<svg xmlns="http://www.w3.org/2000/svg" width="512" height="512" viewBox="0 0 512 512" version="1.1"><path d="M 103 55.135 C 96.515 56.105, 93.627 57.439, 89.044 61.579 C 84.119 66.028, 81.449 73.690, 82.523 80.287 C 84.017 89.464, 91.034 99.845, 100.802 107.328 C 110.544 114.791, 109.665 114.808, 117.790 106.999 C 128.812 96.405, 144.055 88.354, 156.750 86.420 C 159.088 86.064, 161 85.249, 161 84.609 C 161 81.217, 150.813 70.423, 142.500 65.005 C 130.889 57.439, 114.677 53.388, 103 55.135 M 428.031 100.140 C 425.024 100.639, 415.799 102.644, 407.531 104.596 C 370.546 113.330, 359.336 113.241, 335.407 104.027 L 327.640 101.036 333.981 107.268 C 355.647 128.560, 363.154 159.837, 353.500 188.594 C 347.942 205.152, 347.221 206.002, 290.120 263.322 C 261.179 292.374, 236.150 316.876, 234.500 317.771 C 230.748 319.805, 221.426 319.907, 217.822 317.952 C 214.365 316.077, 121.628 224.809, 113.409 215.194 C 101.069 200.756, 95.088 185.474, 94.259 166.265 L 93.731 154.029 91.116 154.637 C 89.677 154.971, 85.575 156.385, 82 157.779 C 56.047 167.900, 38.537 193.014, 42.082 215.031 C 44.199 228.174, 50.175 238.324, 66.298 256.159 C 79.809 271.105, 84.109 276.914, 88.486 286.132 C 95.053 299.962, 93.160 310.144, 82.527 318.177 C 77.146 322.241, 69.102 325.537, 54.683 329.585 C 41.819 333.196, 33.193 338.009, 25.207 346.029 C 17.660 353.609, 12.958 360.855, 9.161 370.758 C 6.861 376.759, 6.576 378.930, 6.573 390.500 C 6.571 401.826, 6.876 404.273, 8.940 409.500 C 14.982 424.797, 27.317 438.251, 41.440 444.950 C 51.902 449.911, 57.506 451.187, 68.500 451.110 C 79.698 451.032, 89.378 448.451, 100.961 442.457 C 109.023 438.286, 123.547 427.463, 128.956 421.596 L 131.413 418.932 111.762 399.216 C 87.814 375.189, 86.498 373.093, 86.505 359 C 86.509 350.529, 86.814 348.922, 89.317 344.160 C 95.742 331.940, 105.859 325.046, 118.579 324.219 C 126.687 323.692, 134.508 325.559, 139.971 329.325 L 143.443 331.719 149.842 328.201 C 155.023 325.353, 157.612 324.596, 163.450 324.222 C 183.037 322.964, 197.527 334.763, 201.488 355.197 C 202.007 357.870, 202.042 357.880, 205.535 356.421 C 207.473 355.611, 212.758 354.090, 217.280 353.041 C 245.024 346.601, 273.188 351.949, 296.538 368.092 C 307.203 375.464, 315.151 384.509, 329.093 405.138 C 335.745 414.981, 344.559 426.617, 348.679 430.997 C 365.380 448.750, 385.199 457.121, 410.413 457.074 C 435.015 457.027, 455.781 447.231, 472.515 427.778 C 489.904 407.564, 495.835 381.798, 488.348 359 C 483.152 343.180, 470.462 327.294, 453.231 315.037 C 445.013 309.191, 417.254 294.413, 416.294 295.372 C 416.051 295.615, 417.241 297.730, 418.937 300.072 C 424.927 308.340, 427.436 322.058, 424.940 332.885 C 422.379 343.993, 419.881 347.173, 390.530 376.680 C 359.831 407.542, 359.124 408.051, 351.779 404.565 C 349.901 403.674, 336.196 390.695, 321.325 375.722 C 297.370 351.604, 293.900 347.704, 290.894 341.521 C 287.663 334.877, 287.500 334.013, 287.500 323.521 C 287.500 313.190, 287.701 312.076, 290.709 305.726 C 298.770 288.708, 317.042 278.897, 335.116 281.882 C 341.252 282.895, 350.003 286.521, 355.111 290.165 C 356.403 291.087, 357.420 290.782, 360.256 288.618 C 365.868 284.338, 374.455 281.703, 383.143 281.595 L 390.786 281.500 389.393 278.800 C 387.585 275.295, 387.609 266.871, 389.440 262.489 C 391.600 257.321, 399.458 249.477, 407.419 244.543 C 415.107 239.779, 423.870 235.978, 445.460 228.044 C 469.881 219.069, 480.232 213.013, 490.718 201.563 C 500.937 190.404, 506 177.070, 506 161.316 C 506 125.813, 478.316 98.657, 442.590 99.117 C 437.591 99.181, 431.039 99.642, 428.031 100.140 M 110 333.077 C 99.908 337.636, 93.955 346.348, 93.218 357.639 C 92.411 369.981, 94.212 372.708, 120.042 398.250 C 132.139 410.212, 142.829 420, 143.798 420 C 144.766 420, 155.534 409.988, 167.726 397.750 C 192.682 372.702, 194.352 370.271, 194.390 358.931 C 194.417 350.756, 190.809 342.705, 184.822 337.580 C 174.562 328.797, 158.204 328.760, 147.822 337.497 C 146.185 338.873, 144.432 340, 143.926 340 C 143.419 340, 140.866 338.489, 138.252 336.643 C 135.639 334.796, 131.970 332.771, 130.101 332.143 C 124.687 330.323, 115.111 330.768, 110 333.077" stroke="none" fill="#ececec" fill-rule="evenodd"/><path d="M 163.814 85.040 C 130.910 90.085, 107.082 109.815, 96.837 140.500 C 94.803 146.594, 94.500 149.442, 94.500 162.500 C 94.500 175.431, 94.823 178.534, 96.843 185 C 100.230 195.840, 106.257 206.825, 113.409 215.194 C 121.628 224.809, 214.365 316.077, 217.822 317.952 C 221.426 319.907, 230.748 319.805, 234.500 317.771 C 236.150 316.876, 261.179 292.374, 290.120 263.322 C 347.221 206.002, 347.942 205.152, 353.500 188.594 C 359.240 171.496, 359.036 153.495, 352.911 136.569 C 344.572 113.521, 325.444 95.078, 302.638 88.097 C 277.695 80.461, 248.546 85.950, 229.957 101.785 L 226.100 105.070 219.800 100.388 C 204.006 88.650, 181.145 82.383, 163.814 85.040 M 319.459 282.395 C 306.687 285.498, 296.296 293.931, 290.709 305.726 C 287.701 312.076, 287.500 313.190, 287.500 323.521 C 287.500 334.013, 287.663 334.877, 290.894 341.521 C 293.900 347.704, 297.370 351.604, 321.325 375.722 C 336.196 390.695, 349.901 403.674, 351.779 404.565 C 359.124 408.051, 359.831 407.542, 390.530 376.680 C 419.881 347.173, 422.379 343.993, 424.940 332.885 C 429.578 312.770, 418.271 291.285, 399.153 283.882 C 387.377 279.322, 369.607 281.486, 360.256 288.618 C 357.420 290.782, 356.403 291.087, 355.111 290.165 C 350.456 286.844, 341.724 283.050, 336.520 282.088 C 329.304 280.754, 325.964 280.814, 319.459 282.395 M 110.079 325.643 C 100.761 328.905, 94.307 334.683, 89.253 344.287 C 86.822 348.907, 86.509 350.581, 86.505 359 C 86.498 373.234, 87.651 374.988, 115.646 403.310 C 140.066 428.015, 141.550 429.097, 147.500 426.518 C 149.150 425.803, 160.713 414.931, 173.194 402.359 C 199.642 375.719, 201.517 372.911, 201.475 359.983 C 201.403 338.256, 185.010 322.838, 163.450 324.222 C 157.612 324.596, 155.023 325.353, 149.842 328.201 L 143.443 331.719 139.971 329.331 C 132.464 324.166, 119.031 322.509, 110.079 325.643 M 110 333.077 C 99.908 337.636, 93.955 346.348, 93.218 357.639 C 92.411 369.981, 94.212 372.708, 120.042 398.250 C 132.139 410.212, 142.829 420, 143.798 420 C 144.766 420, 155.534 409.988, 167.726 397.750 C 192.682 372.702, 194.352 370.271, 194.390 358.931 C 194.417 350.756, 190.809 342.705, 184.822 337.580 C 174.562 328.797, 158.204 328.760, 147.822 337.497 C 146.185 338.873, 144.432 340, 143.926 340 C 143.419 340, 140.866 338.489, 138.252 336.643 C 135.639 334.796, 131.970 332.771, 130.101 332.143 C 124.687 330.323, 115.111 330.768, 110 333.077" stroke="none" fill="#dc4a85" fill-rule="evenodd"/></svg>